<?xml version="1.0" standalone="no"?>
<!DOCTYPE svg PUBLIC "-//W3C//DTD SVG 20010904//EN"
 "http://www.w3.org/TR/2001/REC-SVG-20010904/DTD/svg10.dtd">
<svg version="1.0" xmlns="http://www.w3.org/2000/svg"
 width="1024.000000pt" height="1024.000000pt" viewBox="0 0 1024.000000 1024.000000"
 preserveAspectRatio="xMidYMid meet">

<g transform="translate(0.000000,1024.000000) scale(0.100000,-0.100000)"
fill="#000000" stroke="none">
<path d="M5020 7621 c-25 -10 -142 -74 -260 -143 -118 -69 -377 -220 -575
-335 -1119 -650 -1126 -654 -1154 -696 l-26 -41 -3 -1129 c-2 -796 1 -1141 9
-1169 19 -74 82 -123 439 -344 184 -114 596 -369 915 -567 319 -197 602 -371
630 -385 72 -37 170 -38 242 -1 51 27 622 375 1449 885 247 151 464 290 482
307 18 17 43 54 57 81 l25 50 0 1115 c0 748 -4 1128 -11 1154 -19 70 -58 99
-392 290 -177 102 -612 351 -967 554 -355 203 -660 375 -679 381 -49 17 -129
14 -181 -7z m-110 -1016 c12 -23 11 -29 -8 -55 -12 -16 -22 -32 -22 -34 0 -11
76 -43 114 -49 22 -4 57 -20 79 -38 40 -32 115 -54 148 -44 11 4 19 18 21 37
6 59 32 61 173 8 52 -19 81 -23 212 -24 93 -1 156 -5 163 -12 6 -6 11 -34 13
-64 2 -63 -15 -76 -40 -31 -10 17 -23 33 -30 35 -6 3 11 -32 39 -77 65 -104
78 -129 78 -146 0 -7 11 -26 24 -41 15 -19 26 -48 30 -84 5 -33 18 -71 35 -98
15 -24 35 -56 45 -71 10 -16 33 -35 51 -43 41 -17 103 -80 112 -114 12 -49 31
-60 102 -60 37 0 93 7 124 15 94 24 101 22 93 -26 -15 -91 -123 -249 -240
-350 -49 -42 -96 -89 -104 -104 -8 -16 -27 -39 -42 -51 -15 -13 -47 -53 -70
-89 -40 -61 -42 -68 -35 -113 4 -26 7 -57 6 -69 0 -12 9 -38 20 -58 31 -52 30
-178 -1 -245 -19 -41 -33 -54 -92 -86 -86 -47 -133 -102 -123 -142 4 -15 9
-49 12 -75 6 -54 -2 -67 -58 -103 -26 -16 -39 -33 -44 -56 -12 -54 -34 -89
-112 -175 -78 -86 -136 -123 -191 -123 -18 0 -55 -9 -84 -20 -74 -28 -113 -26
-144 7 -21 23 -24 33 -19 65 8 47 -18 133 -51 168 -35 38 -60 106 -74 200 -10
67 -24 109 -66 196 -30 62 -54 120 -54 130 0 35 20 92 46 130 25 36 26 42 19
123 -11 131 -36 201 -99 271 -77 86 -83 106 -62 193 29 129 20 150 -68 148
-64 -1 -96 11 -96 37 0 31 -22 42 -79 42 -42 0 -73 -8 -121 -31 -59 -28 -71
-30 -132 -24 -47 4 -82 2 -117 -9 -44 -13 -57 -13 -99 -1 -57 17 -128 87 -195
191 -25 40 -59 80 -76 90 -32 19 -35 24 -46 88 -5 28 0 55 16 98 20 54 21 65
10 130 -12 71 -12 71 19 122 71 117 144 200 203 232 77 40 92 58 111 127 14
48 23 61 56 82 22 14 40 29 40 34 0 19 41 23 61 5 16 -15 26 -15 76 -5 32 6
78 22 103 35 43 23 54 24 236 25 l191 1 13 -25z m2290 -162 c0 -5 -12 -15 -28
-24 -15 -9 -171 -101 -347 -205 -339 -201 -444 -262 -434 -250 5 5 800 484
807 485 1 1 2 -2 2 -6z m-820 -488 c0 -2 -10 -9 -22 -15 -22 -11 -22 -10 -4 4
21 17 26 19 26 11z m8 -1317 c6 -13 13 -46 16 -74 5 -41 3 -53 -9 -58 -8 -3
-15 -12 -15 -19 0 -8 -13 -57 -30 -108 -78 -246 -97 -279 -157 -279 -38 0 -57
23 -72 90 -9 37 -7 55 10 108 16 47 18 69 11 90 -16 48 14 90 94 132 59 30 73
43 97 88 16 29 32 52 36 52 4 0 13 -10 19 -22z"/>
</g>
</svg>
