<svg xmlns="http://www.w3.org/2000/svg" width="1365.333" height="1365.333" version="1.0" viewBox="0 0 1024 1024"><path d="M502 261.9c-2.5 1-14.2 7.4-26 14.3s-37.7 22-57.5 33.5c-111.9 65-112.6 65.4-115.4 69.6l-2.6 4.1-.3 112.9c-.2 79.6.1 114.1.9 116.9 1.9 7.4 8.2 12.3 43.9 34.4 18.4 11.4 59.6 36.9 91.5 56.7 31.9 19.7 60.2 37.1 63 38.5 7.2 3.7 17 3.8 24.2.1 5.1-2.7 62.2-37.5 144.9-88.5 24.7-15.1 46.4-29 48.2-30.7 1.8-1.7 4.3-5.4 5.7-8.1l2.5-5V499.1c0-74.8-.4-112.8-1.1-115.4-1.9-7-5.8-9.9-39.2-29-17.7-10.2-61.2-35.1-96.7-55.4-35.5-20.3-66-37.5-67.9-38.1-4.9-1.7-12.9-1.4-18.1.7zm-11 101.6c1.2 2.3 1.1 2.9-.8 5.5-1.2 1.6-2.2 3.2-2.2 3.4 0 1.1 7.6 4.3 11.4 4.9 2.2.4 5.7 2 7.9 3.8 4 3.2 11.5 5.4 14.8 4.4 1.1-.4 1.9-1.8 2.1-3.7.6-5.9 3.2-6.1 17.3-.8 5.2 1.9 8.1 2.3 21.2 2.4 9.3.1 15.6.5 16.3 1.2.6.6 1.1 3.4 1.3 6.4.2 6.3-1.5 7.6-4 3.1-1-1.7-2.3-3.3-3-3.5-.6-.3 1.1 3.2 3.9 7.7 6.5 10.4 7.8 12.9 7.8 14.6 0 .7 1.1 2.6 2.4 4.1 1.5 1.9 2.6 4.8 3 8.4.5 3.3 1.8 7.1 3.5 9.8 1.5 2.4 3.5 5.6 4.5 7.1 1 1.6 3.3 3.5 5.1 4.3 4.1 1.7 10.3 8 11.2 11.4 1.2 4.9 3.1 6 10.2 6 3.7 0 9.3-.7 12.4-1.5 9.4-2.4 10.1-2.2 9.3 2.6-1.5 9.1-12.3 24.9-24 35-4.9 4.2-9.6 8.9-10.4 10.4-.8 1.6-2.7 3.9-4.2 5.1-1.5 1.3-4.7 5.3-7 8.9-4 6.1-4.2 6.8-3.5 11.3.4 2.6.7 5.7.6 6.9 0 1.2.9 3.8 2 5.8 3.1 5.2 3 17.8-.1 24.5-1.9 4.1-3.3 5.4-9.2 8.6-8.6 4.7-13.3 10.2-12.3 14.2.4 1.5.9 4.9 1.2 7.5.6 5.4-.2 6.7-5.8 10.3-2.6 1.6-3.9 3.3-4.4 5.6-1.2 5.4-3.4 8.9-11.2 17.5-7.8 8.6-13.6 12.3-19.1 12.3-1.8 0-5.5.9-8.4 2-7.4 2.8-11.3 2.6-14.4-.7-2.1-2.3-2.4-3.3-1.9-6.5.8-4.7-1.8-13.3-5.1-16.8-3.5-3.8-6-10.6-7.4-20-1-6.7-2.4-10.9-6.6-19.6-3-6.2-5.4-12-5.4-13 0-3.5 2-9.2 4.6-13 2.5-3.6 2.6-4.2 1.9-12.3-1.1-13.1-3.6-20.1-9.9-27.1-7.7-8.6-8.3-10.6-6.2-19.3 2.9-12.9 2-15-6.8-14.8-6.4.1-9.6-1.1-9.6-3.7 0-3.1-2.2-4.2-7.9-4.2-4.2 0-7.3.8-12.1 3.1-5.9 2.8-7.1 3-13.2 2.4-4.7-.4-8.2-.2-11.7.9-4.4 1.3-5.7 1.3-9.9.1-5.7-1.7-12.8-8.7-19.5-19.1-2.5-4-5.9-8-7.6-9-3.2-1.9-3.5-2.4-4.6-8.8-.5-2.8 0-5.5 1.6-9.8 2-5.4 2.1-6.5 1-13-1.2-7.1-1.2-7.1 1.9-12.2 7.1-11.7 14.4-20 20.3-23.2 7.7-4 9.2-5.8 11.1-12.7 1.4-4.8 2.3-6.1 5.6-8.2 2.2-1.4 4-2.9 4-3.4 0-1.9 4.1-2.3 6.1-.5 1.6 1.5 2.6 1.5 7.6.5 3.2-.6 7.8-2.2 10.3-3.5 4.3-2.3 5.4-2.4 23.6-2.5l19.1-.1 1.3 2.5zm229 16.2c0 .5-1.2 1.5-2.8 2.4-1.5.9-17.1 10.1-34.7 20.5-33.9 20.1-44.4 26.2-43.4 25 .5-.5 80-48.4 80.7-48.5.1-.1.2.2.2.6zm-82 48.8c0 .2-1 .9-2.2 1.5-2.2 1.1-2.2 1-.4-.4 2.1-1.7 2.6-1.9 2.6-1.1zm.8 131.7c.6 1.3 1.3 4.6 1.6 7.4.5 4.1.3 5.3-.9 5.8-.8.3-1.5 1.2-1.5 1.9 0 .8-1.3 5.7-3 10.8-7.8 24.6-9.7 27.9-15.7 27.9-3.8 0-5.7-2.3-7.2-9-.9-3.7-.7-5.5 1-10.8 1.6-4.7 1.8-6.9 1.1-9-1.6-4.8 1.4-9 9.4-13.2 5.9-3 7.3-4.3 9.7-8.8 1.6-2.9 3.2-5.2 3.6-5.2.4 0 1.3 1 1.9 2.2z"/></svg>